Coordinates
version=1
nRows=11
nColumns=63
inDegrees=yes

Units are S.I. units (second, meters, Newtons, ...)
If the header above contains a line with 'inDegrees', this indicates whether rotational values are in degrees (yes) or radians (no).

endheader
time	pelvis_tilt	pelvis_list	pelvis_rotation	pelvis_tx	pelvis_ty	pelvis_tz	hip_flexion_r	hip_adduction_r	hip_rotation_r	knee_angle_r	knee_angle_r_beta	ankle_angle_r	subtalar_angle_r	mtp_angle_r	hip_flexion_l	hip_adduction_l	hip_rotation_l	knee_angle_l	knee_angle_l_beta	ankle_angle_l	subtalar_angle_l	mtp_angle_l	L5_S1_Flex_Ext	L5_S1_Lat_Bending	L5_S1_axial_rotation	L4_L5_Flex_Ext	L4_L5_Lat_Bending	L4_L5_axial_rotation	L3_L4_Flex_Ext	L3_L4_Lat_Bending	L3_L4_axial_rotation	L2_L3_Flex_Ext	L2_L3_Lat_Bending	L2_L3_axial_rotation	L1_L2_Flex_Ext	L1_L2_Lat_Bending	L1_L2_axial_rotation	L1_T12_Flex_Ext	L1_T12_Lat_Bending	L1_T12_axial_rotation	Abs_r3	Abs_r2	Abs_r1	Abs_t1	Abs_t2	neck_flexion	neck_bending	neck_rotation	arm_flex_r	arm_add_r	arm_rot_r	elbow_flex_r	pro_sup_r	wrist_flex_r	wrist_dev_r	arm_flex_l	arm_add_l	arm_rot_l	elbow_flex_l	pro_sup_l	wrist_flex_l	wrist_dev_l
      1.33333333	      8.12520489	      3.23029476	     88.82543389	      0.12120568	      0.79484688	      0.82260442	      1.25437870	      4.83322874	      1.31477601	      5.79532723	      0.10114754	     22.94462308	     12.80920444	      0.00000000	     -0.03641222	     -4.18286589	     13.39929259	      5.69679903	      0.09942790	     19.17180423	    -10.19243502	      0.00000000	     -0.22459077	      0.59382233	     -0.72280863	     -0.41708751	      0.78978371	     -0.76798417	     -0.36898017	      1.44381962	     -0.76798417	     -0.25668479	      1.44381962	     -0.63245755	     -0.20855499	      1.21092251	     -0.58728201	     -0.12833116	      0.91983080	     -0.54210648	     -1.60422939	      6.71743702	     -4.02004478	      0.00000000	      0.00000000	      3.84842896	      2.19495173	     22.59365338	     63.31759762	    -34.85166691	     -1.15283089	    149.89608041	     89.34022197	     -2.21726019	    -12.98174730	      9.38689719	    -18.48362825	     70.27278489	     26.77280102	     88.46187177	     -8.56650784	      5.72161426
      1.35000000	      7.86369457	      3.24172730	     88.01918743	      0.12460373	      0.79574827	      0.82138080	      0.95098475	      4.71032332	      2.67472848	      5.29467122	      0.09240945	     22.67870016	     12.51279138	      0.00000000	     -0.31232905	     -4.07549976	     12.41356775	      5.49913052	      0.09597793	     19.23496880	    -10.04453467	      0.00000000	     -0.22019644	      0.53832012	     -0.53875947	     -0.40892681	      0.71596576	     -0.57243194	     -0.36176074	      1.30887154	     -0.57243194	     -0.25166251	      1.30887154	     -0.47141454	     -0.20447442	      1.09774239	     -0.43774207	     -0.12582025	      0.83385787	     -0.40406960	     -1.57284117	      6.08958488	     -2.99641855	      0.00000000	      0.00000000	      3.86417635	      2.61929774	     20.96757341	     62.57389453	    -35.49509340	     -1.69372731	    149.89121633	     89.32060262	     -4.00654994	    -16.85419095	     10.12047829	    -18.82698148	     72.65878619	     26.89281171	     88.53409009	     -8.52884221	      6.02580192
      1.36666667	      7.78852187	      3.31696572	     87.55026958	      0.12717713	      0.79649364	      0.81990384	      0.49679012	      4.77585154	      4.53021406	      4.68684678	      0.08180091	     22.26917744	     11.08620102	      0.00000000	     -0.59895623	     -4.13695104	     11.71484479	      5.41704918	      0.09454534	     19.44077577	     -9.61817140	      0.00000000	     -0.22339881	      0.51735253	     -0.51481463	     -0.41487394	      0.68807886	     -0.54699054	     -0.36702191	      1.25789093	     -0.54699054	     -0.25532250	      1.25789093	     -0.45046280	     -0.20744814	      1.05498527	     -0.41828688	     -0.12765008	      0.80137906	     -0.38611097	     -1.59571538	      5.85239524	     -2.86324450	      0.00000000	      0.00000000	      3.82616314	      2.87612864	     20.39700917	     62.45083856	    -36.15902540	     -0.76829389	    149.88465986	     89.28546064	     -8.42753302	    -20.58396035	     10.71251288	    -18.90765471	     75.57509421	     26.53075768	     88.38950324	     -8.93040971	      5.58287078
      1.38333333	      7.71065653	      3.44642608	     87.10662947	      0.12972601	      0.79705206	      0.81825872	      0.01992647	      4.77550331	      5.53888002	      4.21007879	      0.07347974	     22.00246516	     10.71563047	      0.00000000	     -1.02227965	     -4.16244367	     11.56756886	      5.25507173	      0.09171830	     19.28853807	     -9.89448987	      0.00000000	     -0.23225838	      0.49500019	     -0.63243052	     -0.43132703	      0.65835026	     -0.67195743	     -0.38157729	      1.20354347	     -0.67195743	     -0.26544810	      1.20354347	     -0.55337670	     -0.21567513	      1.00940439	     -0.51384980	     -0.13271244	      0.76675530	     -0.47432289	     -1.65899837	      5.59954118	     -3.51738882	      0.00000000	      0.00000000	      3.64464825	      3.71077096	     20.56387295	     62.29548619	    -36.16169249	     -1.04748103	    149.88776228	     89.19676073	     -9.13085604	    -22.32718476	     10.29852953	    -19.40916212	     75.62079391	     26.90075694	     88.32333573	     -9.48413724	      5.34209498
      1.40000000	      7.73777472	      3.50756330	     86.77780503	      0.13194956	      0.79712421	      0.81636619	     -0.49996956	      4.92157273	      8.28984277	      3.58559528	      0.06258044	     21.29934632	      7.65124702	      0.00000000	     -1.41732518	     -4.25461626	     12.33932789	      5.05878104	      0.08829239	     18.90099385	    -11.23992355	      0.00000000	     -0.23414680	      0.49758524	     -0.88849906	     -0.43483402	      0.66178836	     -0.94403025	     -0.38467977	      1.20982874	     -0.94403025	     -0.26760637	      1.20982874	     -0.77743667	     -0.21742872	      1.01467581	     -0.72190548	     -0.13379148	      0.77075953	     -0.66637429	     -1.67248716	      5.62878371	     -4.94156520	      0.00000000	      0.00000000	      3.76534862	      4.04883543	     21.35154737	     62.71410466	    -36.11596443	     -0.60407122	    149.89375451	     89.08038849	    -10.74520161	    -23.35757943	      8.96767137	    -19.99545549	     72.92772279	     27.67154963	     88.30666884	     -9.62675013	      5.51356129
      1.41666667	      7.98422441	      3.70475447	     86.38379306	      0.13361046	      0.79726183	      0.81456290	     -1.06367581	      5.16698634	      8.82745249	      3.17345798	      0.05538729	     20.91057387	      7.44560310	      0.00000000	     -2.02773518	     -4.56242584	     12.46037751	      4.75656246	      0.08301768	     18.79983159	    -11.69310332	      0.00000000	     -0.27072895	      0.53100559	     -1.13065488	     -0.50277074	      0.70623744	     -1.20132081	     -0.44478060	      1.29108700	     -1.20132081	     -0.30941612	      1.29108700	     -0.98932302	     -0.25139891	      1.08282661	     -0.91865709	     -0.15469452	      0.82252766	     -0.84799116	     -1.93378984	      6.00684147	     -6.28836325	      0.00000000	      0.00000000	      4.19672752	      4.38704634	     21.69412623	     63.34817155	    -36.54188730	     -1.19387803	    149.90443435	     88.88413562	    -10.88409757	    -23.83475898	      7.90175401	    -20.07289345	     71.10418892	     27.71014022	     87.84489106	    -10.13250428	      4.98616910
      1.43333333	      7.89205925	      3.57886241	     86.21201714	      0.13584012	      0.79665553	      0.81209842	     -1.37270657	      5.18118660	     11.60073954	      2.59179593	      0.04523537	     20.30246220	      3.80894234	      0.00000000	     -2.33015491	     -4.52181643	     13.92696314	      4.31410726	      0.07529538	     18.28784650	    -14.10809141	      0.00000000	     -0.26038052	      0.53069585	     -1.57959603	     -0.48355267	      0.70582547	     -1.67832078	     -0.42777916	      1.29033388	     -1.67832078	     -0.29758890	      1.29033388	     -1.38214652	     -0.24178935	      1.08219497	     -1.28342177	     -0.14878143	      0.82204786	     -1.18469702	     -1.85987202	      6.00333754	     -8.78523921	      0.00000000	      0.00000000	      4.96583705	      4.57523099	     23.13101814	     64.22520994	    -35.97448713	     -0.72629715	    149.91073679	     88.55836169	    -11.60387262	    -24.02488675	      3.85719884	    -20.59812941	     59.61690750	     29.42574813	     88.19254029	     -9.56389449	      5.08801211
      1.45000000	      8.14171072	      3.45624075	     85.82140403	      0.13739190	      0.79606323	      0.80979491	     -1.66259805	      5.46486198	     14.27420887	      2.01119827	      0.03510203	     19.73221946	      0.63103088	      0.00000000	     -2.71199934	     -4.84477298	     14.27690650	      3.73776182	      0.06523625	     18.57035285	    -15.13410942	      0.00000000	     -0.27036427	      0.57752315	     -1.86978244	     -0.50209348	      0.76810579	     -1.98664385	     -0.44418145	      1.40418978	     -1.98664385	     -0.30899932	      1.40418978	     -1.63605964	     -0.25106026	      1.17768521	     -1.51919824	     -0.15448614	      0.89458336	     -1.40233683	     -1.93118491	      6.53305737	    -10.39916902	      0.00000000	      0.00000000	      6.31835542	      4.49177234	     23.02070535	     65.22420503	    -36.47032026	     -1.41660408	    149.91727179	     87.88724528	    -11.07541119	    -24.09267995	      0.85721206	    -20.13965224	     50.64087563	     30.47043927	     88.20856843	     -9.15597702	      5.21592919
      1.46666667	      8.47822113	      3.20566320	     85.47036193	      0.13856604	      0.79540142	      0.80763971	     -1.69704683	      5.81856642	     15.61651459	      1.61494375	      0.02818609	     19.64229056	     -0.75496016	      0.00000000	     -2.95207337	     -5.26319895	     14.39033568	      3.07886999	      0.05373642	     19.15228477	    -15.90087777	      0.00000000	     -0.27316757	      0.63927116	     -2.10236407	     -0.50729949	      0.85023064	     -2.23376183	     -0.44878700	      1.55432390	     -2.23376183	     -0.31220322	      1.55432390	     -1.83956857	     -0.25366341	      1.30360175	     -1.70817081	     -0.15608795	      0.99023103	     -1.57677306	     -1.95120864	      7.23156321	    -11.69271827	      0.00000000	      0.00000000	      7.79244850	      4.64362846	     22.39641930	     66.11899971	    -37.19807036	     -2.72994334	    149.92037357	     86.03698229	     -8.45163838	    -24.00879501	     -1.68436892	    -19.18559708	     42.63408016	     31.13038657	     88.13220736	     -9.57570527	      4.08874394
      1.48333333	      9.13404637	      2.94716960	     85.10548799	      0.13883434	      0.79468882	      0.80610121	     -1.62344533	      6.47133362	     15.97565929	      1.38533929	      0.02417873	     19.77341108	     -0.79218771	      0.00000000	     -3.18092060	     -5.99060765	     14.30497223	      2.36147271	      0.04121547	     19.99128880	    -16.29074124	      0.00000000	     -0.29653742	      0.74481349	     -2.17087549	     -0.55069964	      0.99060195	     -2.30655521	     -0.48718132	      1.81093953	     -2.30655521	     -0.33891261	      1.81093953	     -1.89951606	     -0.27536464	      1.51882368	     -1.76383634	     -0.16944148	      1.15371610	     -1.62815662	     -2.11813711	      8.42547920	    -12.07375822	      0.00000000	      0.00000000	      9.52778832	      4.84655745	     20.82140732	     67.24886014	    -39.01965485	     -4.12772556	    149.92330947	     84.46889863	     -7.56885557	    -23.83722670	     -2.55814592	    -18.18524737	     39.09299273	     31.35591808	     87.39083519	    -10.85199458	      2.84755690
      1.50000000	      9.23479581	      2.49998648	     84.74704084	      0.14061952	      0.79418664	      0.80432887	     -1.31133751	      6.65216349	     16.63939239	      1.23918506	      0.02162786	     20.07990079	     -1.05785259	      0.00000000	     -3.06071443	     -6.19770773	     14.08714979	      1.92866898	      0.03366162	     20.50721407	    -16.63060338	      0.00000000	     -0.26366578	      0.74966680	     -2.27874260	     -0.48965371	      0.99705684	     -2.42116401	     -0.43317650	      1.82273985	     -2.42116401	     -0.30134361	      1.82273985	     -1.99389978	     -0.24484004	      1.52872053	     -1.85147836	     -0.15065862	      1.16123387	     -1.70905695	     -1.88333827	      8.48038073	    -12.67368273	      0.00000000	      0.00000000	     10.36410243	      5.64138705	     18.77708460	     66.87046092	    -39.41059605	     -7.72728310	    149.91664224	     76.06565965	      4.69424307	    -22.16095670	     -4.87713496	    -17.17304375	     31.10542703	     32.62467021	     88.23086063	    -11.08038503	      2.22455680
